<svg width="12" height="12" viewBox="0 0 12 12" fill="none" xmlns="http://www.w3.org/2000/svg">
<path d="M0.80679 7.93716C0.997973 8.10377 1.15513 8.31291 1.13982 8.45521C1.13083 8.54019 1.12586 8.62659 1.12586 8.71438C1.12586 10.0076 2.09838 11.0559 3.2979 11.0559C3.44606 11.0559 3.59062 11.0398 3.73047 11.0093C3.96599 10.9581 4.24409 11.0572 4.41071 11.2511C4.80678 11.7113 5.37152 12 5.99999 12C6.6638 12 7.25805 11.6787 7.65638 11.1727C7.81469 10.9716 8.08266 10.888 8.32089 10.9629C8.51318 11.0233 8.71675 11.0559 8.92727 11.0559C10.1268 11.0559 11.0993 10.0074 11.0993 8.71438C11.0993 8.56971 11.0867 8.4283 11.0628 8.29119C11.0225 8.05988 11.1299 7.77168 11.3094 7.5911C11.7338 7.16435 12 6.55729 12 5.88198C12 5.14674 11.6852 4.49174 11.1932 4.06287C11.002 3.89623 10.8448 3.68709 10.8602 3.54477C10.8692 3.45981 10.8741 3.37341 10.8741 3.28559C10.8741 1.99236 9.90158 0.944136 8.70208 0.944136C8.55392 0.944136 8.40936 0.96018 8.26953 0.990639C8.03401 1.04186 7.75591 0.942729 7.58927 0.74894C7.19319 0.288671 6.62845 0 5.99999 0C5.37155 0 4.80681 0.288671 4.41071 0.74894C4.24409 0.942482 3.96599 1.04186 3.73047 0.990639C3.59064 0.96018 3.44606 0.944136 3.2979 0.944136C2.0984 0.944136 1.12586 1.99261 1.12586 3.28559C1.12586 3.41022 1.13509 3.53247 1.15287 3.65169C1.18259 3.85232 1.04815 4.09967 0.852708 4.2609C0.334824 4.68837 0 5.36035 0 6.11802C0 6.85326 0.314785 7.50828 0.80679 7.93716ZM3.09593 6.20276C3.14411 6.11328 3.26707 6.11212 3.37965 6.21458L4.51274 7.05179C4.5742 7.09099 4.63298 7.11103 4.68949 7.11103C4.80636 7.11103 4.8989 7.02276 4.98829 6.93775L8.61427 3.13312C8.84101 2.87466 9.06144 2.78356 9.20536 2.88269C9.27177 2.92847 9.31477 2.99739 9.32628 3.07694C9.34001 3.17136 9.30848 3.27308 9.23755 3.36325L4.87773 8.91476C4.81446 8.99523 4.73385 9.03963 4.65099 9.03963C4.55259 9.03963 4.46343 8.97753 4.406 8.86944L3.12633 6.45125C3.07342 6.36088 3.06169 6.26699 3.09593 6.20276Z" fill="#29B6F6"/>
</svg>
