<svg width="70" height="70" viewBox="0 0 70 70" fill="none" xmlns="http://www.w3.org/2000/svg">
<rect width="70" height="70" rx="10" fill="#181A1E"/>
<path d="M49.4175 28.0868C49.4375 28.3943 49.4375 28.7043 49.4375 29.0143C49.4375 38.5043 42.215 49.4468 29.0075 49.4468V49.4418C25.1053 49.4473 21.284 48.3294 18 46.2218C21.796 46.6779 25.6178 45.6078 28.625 43.2468C27.1266 43.2182 25.6747 42.7221 24.472 41.8279C23.2694 40.9337 22.3763 39.686 21.9175 38.2593C22.995 38.4668 24.105 38.4243 25.16 38.1343C23.5353 37.8061 22.0742 36.926 21.0243 35.6433C19.9745 34.3606 19.4006 32.7543 19.4 31.0968V31.0068C20.4 31.5618 21.5175 31.8693 22.66 31.9068C21.139 30.8912 20.0621 29.334 19.6488 27.5524C19.2354 25.7707 19.5166 23.8985 20.435 22.3168C22.238 24.535 24.4874 26.349 27.0372 27.6411C29.587 28.9332 32.3801 29.6745 35.235 29.8168C34.8759 28.2769 35.0348 26.6616 35.687 25.2212C36.3393 23.7808 37.4485 22.5957 38.8427 21.8498C40.2369 21.1038 41.8382 20.8386 43.3984 21.0953C44.9587 21.3519 46.3907 22.1161 47.4725 23.2693C49.0806 22.9521 50.6227 22.3628 52.0325 21.5268C51.4965 23.1886 50.3753 24.5994 48.8775 25.4968C50.3006 25.3291 51.6903 24.9482 53 24.3668C52.0366 25.8101 50.8235 27.0698 49.4175 28.0868Z" fill="#1D9BF0"/>
</svg>
