<svg width="70" height="70" viewBox="0 0 70 70" fill="none" xmlns="http://www.w3.org/2000/svg">
<rect width="70" height="70" rx="10" fill="#181A1E"/>
<path d="M34.5 18C29.8587 18 25.4075 19.8437 22.1256 23.1256C18.8437 26.4075 17 30.8587 17 35.5C17 40.1413 18.8437 44.5925 22.1256 47.8744C25.4075 51.1563 29.8587 53 34.5 53C39.1413 53 43.5925 51.1563 46.8744 47.8744C50.1563 44.5925 52 40.1413 52 35.5C52 30.8587 50.1563 26.4075 46.8744 23.1256C43.5925 19.8437 39.1413 18 34.5 18Z" fill="#29B6F6"/>
<path d="M43.2062 27.625L39.9285 44.3602C39.9285 44.3602 39.7876 45.125 38.8391 45.125C38.3351 45.125 38.0752 44.8853 38.0752 44.8853L30.9755 38.9939L27.5018 37.243L23.0436 36.0574C23.0436 36.0574 22.25 35.8281 22.25 35.1719C22.25 34.625 23.0664 34.3643 23.0664 34.3643L41.7179 26.9548C41.717 26.9539 42.2875 26.7491 42.7031 26.75C42.9586 26.75 43.25 26.8594 43.25 27.1875C43.25 27.4063 43.2062 27.625 43.2062 27.625Z" fill="white"/>
<path d="M33.6252 41.1919L30.6275 44.1441C30.6275 44.1441 30.4971 44.2448 30.323 44.2491C30.2626 44.2509 30.1978 44.2413 30.1313 44.2115L30.9748 38.9921L33.6252 41.1919Z" fill="#B0BEC5"/>
<path d="M39.6599 30.4215C39.512 30.229 39.239 30.194 39.0465 30.3401L27.5 37.25C27.5 37.25 29.3427 42.4055 29.6236 43.298C29.9054 44.1914 30.1311 44.2124 30.1311 44.2124L30.9746 38.993L39.5776 31.034C39.7701 30.8879 39.806 30.614 39.6599 30.4215Z" fill="#CFD8DC"/>
</svg>
