<svg width="70" height="70" viewBox="0 0 70 70" fill="none" xmlns="http://www.w3.org/2000/svg">
<rect width="70" height="70" rx="10" fill="#181A1E"/>
<path d="M45.2341 51.9815L25.7999 52C21.5244 52.0039 18.0233 48.5096 18.0185 44.2341L18 24.7999C17.9961 20.5244 21.4904 17.0233 25.7659 17.0185L45.2001 17C49.4756 16.9961 52.9767 20.4904 52.9815 24.7659L53 44.2001C53.0049 48.4766 49.5096 51.9776 45.2341 51.9815Z" fill="url(#paint0_radial_101_218)"/>
<path d="M45.2341 51.9815L25.7999 52C21.5244 52.0039 18.0233 48.5096 18.0185 44.2341L18 24.7999C17.9961 20.5244 21.4904 17.0233 25.7659 17.0185L45.2001 17C49.4756 16.9961 52.9767 20.4904 52.9815 24.7659L53 44.2001C53.0049 48.4766 49.5096 51.9776 45.2341 51.9815Z" fill="url(#paint1_radial_101_218)"/>
<path d="M35.5002 41.3025C31.7504 41.3025 28.6982 38.2513 28.6982 34.5005C28.6982 30.7497 31.7504 27.6985 35.5002 27.6985C39.25 27.6985 42.3022 30.7497 42.3022 34.5005C42.3022 38.2513 39.25 41.3025 35.5002 41.3025ZM35.5002 29.642C32.8212 29.642 30.6417 31.8215 30.6417 34.5005C30.6417 37.1795 32.8212 39.3591 35.5002 39.3591C38.1792 39.3591 40.3588 37.1795 40.3588 34.5005C40.3588 31.8215 38.1792 29.642 35.5002 29.642Z" fill="white"/>
<path d="M42.7881 28.6703C43.5931 28.6703 44.2457 28.0177 44.2457 27.2127C44.2457 26.4077 43.5931 25.7551 42.7881 25.7551C41.9831 25.7551 41.3306 26.4077 41.3306 27.2127C41.3306 28.0177 41.9831 28.6703 42.7881 28.6703Z" fill="white"/>
<path d="M41.3306 47.1327H29.6701C25.9203 47.1327 22.8682 44.0816 22.8682 40.3308V28.6703C22.8682 24.9195 25.9203 21.8683 29.6701 21.8683H41.3306C45.0805 21.8683 48.1326 24.9195 48.1326 28.6703V40.3308C48.1326 44.0816 45.0805 47.1327 41.3306 47.1327ZM29.6701 23.8117C26.9911 23.8117 24.8116 25.9912 24.8116 28.6703V40.3308C24.8116 43.0098 26.9911 45.1893 29.6701 45.1893H41.3306C44.0096 45.1893 46.1892 43.0098 46.1892 40.3308V28.6703C46.1892 25.9912 44.0096 23.8117 41.3306 23.8117H29.6701Z" fill="white"/>
<defs>
<radialGradient id="paint0_radial_101_218" cx="0" cy="0" r="1" gradientUnits="userSpaceOnUse" gradientTransform="translate(31.0112 52.0253) scale(43.6288 43.6288)">
<stop stop-color="#FFDD55"/>
<stop offset="0.328" stop-color="#FF543F"/>
<stop offset="0.348" stop-color="#FC5245"/>
<stop offset="0.504" stop-color="#E64771"/>
<stop offset="0.643" stop-color="#D53E91"/>
<stop offset="0.761" stop-color="#CC39A4"/>
<stop offset="0.841" stop-color="#C837AB"/>
</radialGradient>
<radialGradient id="paint1_radial_101_218" cx="0" cy="0" r="1" gradientUnits="userSpaceOnUse" gradientTransform="translate(23.632 16.563) scale(28.9696 19.3024)">
<stop stop-color="#4168C9"/>
<stop offset="0.999" stop-color="#4168C9" stop-opacity="0"/>
</radialGradient>
</defs>
</svg>
