<svg width="198" height="38" viewBox="0 0 198 38" fill="none" xmlns="http://www.w3.org/2000/svg">
<path d="M122.658 36.7266C120.525 36.7266 118.894 36.3529 117.764 35.6055C116.643 34.8672 116.082 33.8281 116.082 32.4883C116.082 31.5677 116.369 30.7975 116.943 30.1777C117.518 29.5579 118.361 29.1159 119.473 28.8516C119.044 28.6693 118.671 28.373 118.352 27.9629C118.033 27.5436 117.873 27.1016 117.873 26.6367C117.873 26.0534 118.042 25.5703 118.379 25.1875C118.716 24.7956 119.204 24.4128 119.842 24.0391C119.04 23.6927 118.402 23.1367 117.928 22.3711C117.463 21.6055 117.23 20.7031 117.23 19.6641C117.23 18.5521 117.472 17.6087 117.955 16.834C118.447 16.0501 119.158 15.4531 120.088 15.043C121.027 14.6328 122.166 14.4277 123.506 14.4277C123.788 14.4277 124.117 14.446 124.49 14.4824C124.864 14.5189 125.206 14.5599 125.516 14.6055C125.835 14.651 126.049 14.6875 126.158 14.7148H131.49V16.834L129.098 17.4492C129.316 17.7865 129.48 18.1465 129.59 18.5293C129.699 18.9121 129.754 19.3177 129.754 19.7461C129.754 21.3867 129.18 22.6673 128.031 23.5879C126.892 24.4993 125.306 24.9551 123.273 24.9551C122.79 24.9277 122.335 24.8913 121.906 24.8457C121.697 25.0098 121.537 25.1829 121.428 25.3652C121.318 25.5475 121.264 25.7389 121.264 25.9395C121.264 26.14 121.346 26.3086 121.51 26.4453C121.683 26.5729 121.938 26.6732 122.275 26.7461C122.622 26.8099 123.05 26.8418 123.561 26.8418H126.158C127.835 26.8418 129.111 27.2018 129.986 27.9219C130.87 28.6419 131.312 29.6992 131.312 31.0938C131.312 32.8802 130.565 34.2656 129.07 35.25C127.585 36.2344 125.447 36.7266 122.658 36.7266ZM122.836 34.0059C123.829 34.0059 124.682 33.9102 125.393 33.7188C126.113 33.5365 126.664 33.2721 127.047 32.9258C127.43 32.5885 127.621 32.1829 127.621 31.709C127.621 31.3262 127.507 31.0208 127.279 30.793C127.061 30.5742 126.723 30.4193 126.268 30.3281C125.821 30.237 125.247 30.1914 124.545 30.1914H122.385C121.874 30.1914 121.414 30.2734 121.004 30.4375C120.603 30.6016 120.284 30.8294 120.047 31.1211C119.81 31.4219 119.691 31.7682 119.691 32.1602C119.691 32.7344 119.965 33.1855 120.512 33.5137C121.068 33.8418 121.842 34.0059 122.836 34.0059ZM123.506 22.4121C124.29 22.4121 124.864 22.1706 125.229 21.6875C125.593 21.2044 125.775 20.5482 125.775 19.7188C125.775 18.7982 125.584 18.11 125.201 17.6543C124.827 17.1895 124.262 16.957 123.506 16.957C122.74 16.957 122.166 17.1895 121.783 17.6543C121.4 18.11 121.209 18.7982 121.209 19.7188C121.209 20.5482 121.396 21.2044 121.77 21.6875C122.152 22.1706 122.731 22.4121 123.506 22.4121ZM142.551 14.4277C142.76 14.4277 143.002 14.4414 143.275 14.4688C143.558 14.487 143.786 14.5143 143.959 14.5508L143.645 18.4609C143.508 18.4154 143.312 18.3835 143.057 18.3652C142.811 18.3379 142.596 18.3242 142.414 18.3242C141.876 18.3242 141.352 18.3926 140.842 18.5293C140.34 18.666 139.889 18.8893 139.488 19.1992C139.087 19.5 138.768 19.901 138.531 20.4023C138.303 20.8945 138.189 21.5007 138.189 22.2207V30H134.02V14.7148H137.178L137.793 17.2852H137.998C138.299 16.7656 138.673 16.2917 139.119 15.8633C139.575 15.4258 140.09 15.0794 140.664 14.8242C141.247 14.5599 141.876 14.4277 142.551 14.4277ZM152.996 14.4004C155.047 14.4004 156.619 14.847 157.713 15.7402C158.807 16.6335 159.354 17.9915 159.354 19.8145V30H156.441L155.635 27.9219H155.525C155.088 28.4688 154.641 28.9154 154.186 29.2617C153.73 29.6081 153.206 29.8633 152.613 30.0273C152.021 30.1914 151.301 30.2734 150.453 30.2734C149.551 30.2734 148.74 30.1003 148.02 29.7539C147.309 29.4076 146.748 28.8789 146.338 28.168C145.928 27.4479 145.723 26.5365 145.723 25.4336C145.723 23.8112 146.292 22.6172 147.432 21.8516C148.571 21.0768 150.28 20.6484 152.559 20.5664L155.211 20.4844V19.8145C155.211 19.0124 155.001 18.4245 154.582 18.0508C154.163 17.6771 153.579 17.4902 152.832 17.4902C152.094 17.4902 151.369 17.5951 150.658 17.8047C149.947 18.0143 149.236 18.2786 148.525 18.5977L147.145 15.7812C147.956 15.3529 148.863 15.0156 149.865 14.7695C150.877 14.5234 151.921 14.4004 152.996 14.4004ZM155.211 22.918L153.598 22.9727C152.249 23.0091 151.31 23.2507 150.781 23.6973C150.262 24.1439 150.002 24.7318 150.002 25.4609C150.002 26.099 150.189 26.5547 150.562 26.8281C150.936 27.0924 151.424 27.2246 152.025 27.2246C152.919 27.2246 153.671 26.9603 154.281 26.4316C154.901 25.903 155.211 25.151 155.211 24.1758V22.918ZM172.164 14.4277C173.887 14.4277 175.277 15.0977 176.334 16.4375C177.4 17.7773 177.934 19.7415 177.934 22.3301C177.934 24.0618 177.683 25.5202 177.182 26.7051C176.68 27.8809 175.988 28.7695 175.104 29.3711C174.219 29.9727 173.203 30.2734 172.055 30.2734C171.316 30.2734 170.683 30.1823 170.154 30C169.626 29.8086 169.174 29.5671 168.801 29.2754C168.427 28.9746 168.104 28.6556 167.83 28.3184H167.611C167.684 28.6829 167.739 29.0566 167.775 29.4395C167.812 29.8223 167.83 30.196 167.83 30.5605V36.7266H163.66V14.7148H167.051L167.639 16.6973H167.83C168.104 16.2871 168.436 15.9089 168.828 15.5625C169.22 15.2161 169.689 14.9427 170.236 14.7422C170.792 14.5326 171.435 14.4277 172.164 14.4277ZM170.824 17.7637C170.095 17.7637 169.516 17.9141 169.088 18.2148C168.66 18.5156 168.345 18.9668 168.145 19.5684C167.953 20.1699 167.848 20.931 167.83 21.8516V22.3027C167.83 23.2871 167.921 24.1211 168.104 24.8047C168.295 25.4883 168.609 26.0078 169.047 26.3633C169.493 26.7188 170.104 26.8965 170.879 26.8965C171.517 26.8965 172.041 26.7188 172.451 26.3633C172.861 26.0078 173.167 25.4883 173.367 24.8047C173.577 24.112 173.682 23.2689 173.682 22.2754C173.682 20.7806 173.449 19.6549 172.984 18.8984C172.52 18.1419 171.799 17.7637 170.824 17.7637ZM185.549 8.72656V13.0605C185.549 13.8171 185.521 14.5371 185.467 15.2207C185.421 15.9043 185.385 16.3874 185.357 16.6699H185.576C185.904 16.1413 186.292 15.7129 186.738 15.3848C187.194 15.0566 187.695 14.8151 188.242 14.6602C188.789 14.5052 189.377 14.4277 190.006 14.4277C191.109 14.4277 192.07 14.6237 192.891 15.0156C193.711 15.3984 194.349 16.0046 194.805 16.834C195.26 17.6543 195.488 18.7207 195.488 20.0332V30H191.318V21.0723C191.318 19.9785 191.118 19.1536 190.717 18.5977C190.316 18.0417 189.696 17.7637 188.857 17.7637C188.019 17.7637 187.358 17.9596 186.875 18.3516C186.392 18.7344 186.05 19.304 185.85 20.0605C185.649 20.8079 185.549 21.724 185.549 22.8086V30H181.379V8.72656H185.549Z" fill="white"/>
<path d="M99.5 24.1875C100.273 24.1875 101.028 23.9584 101.67 23.5292C102.313 23.1 102.813 22.4899 103.109 21.7761C103.405 21.0623 103.482 20.2769 103.331 19.5192C103.18 18.7614 102.808 18.0654 102.262 17.5191C101.716 16.9728 101.02 16.6008 100.262 16.4501C99.5043 16.2993 98.7189 16.3767 98.0051 16.6723C97.2914 16.968 96.6813 17.4687 96.2521 18.1111C95.8228 18.7534 95.5938 19.5087 95.5938 20.2813C95.5938 21.3173 96.0053 22.3108 96.7379 23.0434C97.4704 23.776 98.464 24.1875 99.5 24.1875Z" fill="#E7BA63"/>
<path d="M90.7148 28.875H108.293C108.862 28.8729 109.408 28.6453 109.81 28.2418C110.212 27.8384 110.438 27.2921 110.438 26.7227V14.8828C110.438 14.4498 110.265 14.0345 109.959 13.7282C109.653 13.422 109.238 13.25 108.805 13.25H105.867C105.75 13.2501 105.635 13.2212 105.532 13.166C105.43 13.1108 105.342 13.031 105.277 12.9336L103.914 10.9062C103.76 10.6682 103.548 10.4723 103.3 10.3359C103.051 10.1996 102.772 10.1271 102.488 10.125H96.5117C96.228 10.1271 95.9492 10.1996 95.7004 10.3359C95.4515 10.4723 95.2404 10.6682 95.0859 10.9062L93.7188 12.9336C93.6546 13.0304 93.5676 13.1099 93.4654 13.1651C93.3632 13.2203 93.249 13.2494 93.1328 13.25H90.1953C89.7623 13.25 89.347 13.422 89.0407 13.7282C88.7345 14.0345 88.5625 14.4498 88.5625 14.8828V26.7227C88.5625 27.2935 88.7893 27.841 89.1929 28.2446C89.5965 28.6482 90.144 28.875 90.7148 28.875ZM107.312 14.8125C107.467 14.8125 107.618 14.8583 107.747 14.9442C107.875 15.03 107.975 15.152 108.034 15.2948C108.093 15.4375 108.109 15.5946 108.079 15.7462C108.049 15.8977 107.974 16.0369 107.865 16.1462C107.756 16.2554 107.616 16.3298 107.465 16.36C107.313 16.3901 107.156 16.3747 107.014 16.3155C106.871 16.2564 106.749 16.1563 106.663 16.0278C106.577 15.8993 106.531 15.7483 106.531 15.5938C106.531 15.3865 106.614 15.1878 106.76 15.0413C106.907 14.8948 107.105 14.8125 107.312 14.8125ZM99.5 14.8125C100.582 14.8125 101.639 15.1332 102.538 15.7342C103.438 16.3351 104.139 17.1892 104.552 18.1884C104.966 19.1877 105.075 20.2873 104.864 21.3482C104.653 22.409 104.132 23.3834 103.367 24.1482C102.602 24.9131 101.628 25.4339 100.567 25.6449C99.5061 25.8559 98.4065 25.7476 97.4072 25.3337C96.4079 24.9198 95.5538 24.2189 94.9529 23.3195C94.352 22.4202 94.0312 21.3629 94.0312 20.2812C94.0312 18.8308 94.6074 17.4398 95.633 16.4143C96.6586 15.3887 98.0496 14.8125 99.5 14.8125Z" fill="#E7BA63"/>
<path d="M108.414 11.6875C108.536 11.6875 108.654 11.6389 108.74 11.5525C108.826 11.4661 108.875 11.3488 108.875 11.2266V10.9883C108.874 10.759 108.782 10.5394 108.62 10.3776C108.457 10.2158 108.237 10.125 108.008 10.125H106.387C106.31 10.125 106.237 10.1555 106.182 10.2097C106.128 10.2639 106.098 10.3374 106.098 10.4141C106.098 10.7518 106.232 11.0757 106.471 11.3145C106.709 11.5533 107.033 11.6875 107.371 11.6875H108.414Z" fill="#E7BA63"/>
<path d="M8.90039 10.0117C11.4798 10.0117 13.362 10.5677 14.5469 11.6797C15.7318 12.7826 16.3242 14.3047 16.3242 16.2461C16.3242 17.1211 16.1921 17.9596 15.9277 18.7617C15.6634 19.5547 15.2305 20.2611 14.6289 20.8809C14.0365 21.5007 13.2435 21.9928 12.25 22.3574C11.2565 22.7129 10.0306 22.8906 8.57227 22.8906H6.75391V30H2.51562V10.0117H8.90039ZM8.68164 13.4844H6.75391V19.418H8.14844C8.94141 19.418 9.62956 19.3132 10.2129 19.1035C10.7962 18.8939 11.2474 18.5658 11.5664 18.1191C11.8854 17.6725 12.0449 17.0983 12.0449 16.3965C12.0449 15.4121 11.7715 14.6829 11.2246 14.209C10.6777 13.7259 9.83008 13.4844 8.68164 13.4844ZM23.9395 8.72656V13.0605C23.9395 13.8171 23.9121 14.5371 23.8574 15.2207C23.8118 15.9043 23.7754 16.3874 23.748 16.6699H23.9668C24.2949 16.1413 24.6823 15.7129 25.1289 15.3848C25.5846 15.0566 26.0859 14.8151 26.6328 14.6602C27.1797 14.5052 27.7676 14.4277 28.3965 14.4277C29.4993 14.4277 30.4609 14.6237 31.2812 15.0156C32.1016 15.3984 32.7396 16.0046 33.1953 16.834C33.651 17.6543 33.8789 18.7207 33.8789 20.0332V30H29.709V21.0723C29.709 19.9785 29.5085 19.1536 29.1074 18.5977C28.7064 18.0417 28.0866 17.7637 27.248 17.7637C26.4095 17.7637 25.7487 17.9596 25.2656 18.3516C24.7826 18.7344 24.4408 19.304 24.2402 20.0605C24.0397 20.8079 23.9395 21.724 23.9395 22.8086V30H19.7695V8.72656H23.9395ZM52.0625 22.3301C52.0625 23.6061 51.8893 24.7363 51.543 25.7207C51.2057 26.7051 50.709 27.5391 50.0527 28.2227C49.4056 28.8971 48.6217 29.4076 47.7012 29.7539C46.7897 30.1003 45.7598 30.2734 44.6113 30.2734C43.5358 30.2734 42.5469 30.1003 41.6445 29.7539C40.7513 29.4076 39.972 28.8971 39.3066 28.2227C38.6504 27.5391 38.14 26.7051 37.7754 25.7207C37.4199 24.7363 37.2422 23.6061 37.2422 22.3301C37.2422 20.6348 37.543 19.1992 38.1445 18.0234C38.7461 16.8477 39.6029 15.9544 40.7148 15.3438C41.8268 14.7331 43.153 14.4277 44.6934 14.4277C46.1243 14.4277 47.3913 14.7331 48.4941 15.3438C49.6061 15.9544 50.4766 16.8477 51.1055 18.0234C51.7435 19.1992 52.0625 20.6348 52.0625 22.3301ZM41.4941 22.3301C41.4941 23.3327 41.6035 24.1758 41.8223 24.8594C42.041 25.543 42.3828 26.0579 42.8477 26.4043C43.3125 26.7507 43.9186 26.9238 44.666 26.9238C45.4043 26.9238 46.0013 26.7507 46.457 26.4043C46.9219 26.0579 47.2591 25.543 47.4688 24.8594C47.6875 24.1758 47.7969 23.3327 47.7969 22.3301C47.7969 21.3184 47.6875 20.4798 47.4688 19.8145C47.2591 19.14 46.9219 18.6341 46.457 18.2969C45.9922 17.9596 45.3861 17.791 44.6387 17.791C43.5358 17.791 42.7337 18.1693 42.2324 18.9258C41.7402 19.6823 41.4941 20.8171 41.4941 22.3301ZM61.9473 26.9512C62.403 26.9512 62.8451 26.9056 63.2734 26.8145C63.7109 26.7233 64.1439 26.6094 64.5723 26.4727V29.5762C64.1257 29.7767 63.5697 29.9408 62.9043 30.0684C62.248 30.2051 61.528 30.2734 60.7441 30.2734C59.8327 30.2734 59.0124 30.1276 58.2832 29.8359C57.5632 29.5352 56.9935 29.0202 56.5742 28.291C56.1641 27.5527 55.959 26.5273 55.959 25.2148V17.8457H53.9629V16.082L56.2598 14.6875L57.4629 11.4609H60.1289V14.7148H64.4082V17.8457H60.1289V25.2148C60.1289 25.7982 60.293 26.2357 60.6211 26.5273C60.9583 26.8099 61.4004 26.9512 61.9473 26.9512ZM81.5664 22.3301C81.5664 23.6061 81.3932 24.7363 81.0469 25.7207C80.7096 26.7051 80.2129 27.5391 79.5566 28.2227C78.9095 28.8971 78.1257 29.4076 77.2051 29.7539C76.2936 30.1003 75.2637 30.2734 74.1152 30.2734C73.0397 30.2734 72.0508 30.1003 71.1484 29.7539C70.2552 29.4076 69.4759 28.8971 68.8105 28.2227C68.1543 27.5391 67.6439 26.7051 67.2793 25.7207C66.9238 24.7363 66.7461 23.6061 66.7461 22.3301C66.7461 20.6348 67.0469 19.1992 67.6484 18.0234C68.25 16.8477 69.1068 15.9544 70.2188 15.3438C71.3307 14.7331 72.6569 14.4277 74.1973 14.4277C75.6283 14.4277 76.8952 14.7331 77.998 15.3438C79.11 15.9544 79.9805 16.8477 80.6094 18.0234C81.2474 19.1992 81.5664 20.6348 81.5664 22.3301ZM70.998 22.3301C70.998 23.3327 71.1074 24.1758 71.3262 24.8594C71.5449 25.543 71.8867 26.0579 72.3516 26.4043C72.8164 26.7507 73.4225 26.9238 74.1699 26.9238C74.9082 26.9238 75.5052 26.7507 75.9609 26.4043C76.4258 26.0579 76.763 25.543 76.9727 24.8594C77.1914 24.1758 77.3008 23.3327 77.3008 22.3301C77.3008 21.3184 77.1914 20.4798 76.9727 19.8145C76.763 19.14 76.4258 18.6341 75.9609 18.2969C75.4961 17.9596 74.89 17.791 74.1426 17.791C73.0397 17.791 72.2376 18.1693 71.7363 18.9258C71.2441 19.6823 70.998 20.8171 70.998 22.3301Z" fill="white"/>
</svg>
