<svg width="25" height="25" viewBox="0 0 25 25" fill="none" xmlns="http://www.w3.org/2000/svg">
<path d="M2.49999 5.83334C2.38956 5.83177 2.27992 5.85217 2.17745 5.89335C2.07498 5.93453 1.98171 5.99566 1.90307 6.0732C1.82443 6.15074 1.76198 6.24313 1.71936 6.34501C1.67673 6.44689 1.65479 6.55623 1.65479 6.66667C1.65479 6.77711 1.67673 6.88644 1.71936 6.98832C1.76198 7.0902 1.82443 7.1826 1.90307 7.26014C1.98171 7.33767 2.07498 7.39881 2.17745 7.43998C2.27992 7.48116 2.38956 7.50156 2.49999 7.5H22.5C22.6104 7.50156 22.72 7.48116 22.8225 7.43998C22.925 7.39881 23.0183 7.33767 23.0969 7.26014C23.1755 7.1826 23.238 7.0902 23.2806 6.98832C23.3232 6.88644 23.3452 6.77711 23.3452 6.66667C23.3452 6.55623 23.3232 6.44689 23.2806 6.34501C23.238 6.24313 23.1755 6.15074 23.0969 6.0732C23.0183 5.99566 22.925 5.93453 22.8225 5.89335C22.72 5.85217 22.6104 5.83177 22.5 5.83334H2.49999ZM2.49999 11.6667C2.38956 11.6651 2.27992 11.6855 2.17745 11.7267C2.07498 11.7679 1.98171 11.829 1.90307 11.9065C1.82443 11.9841 1.76198 12.0765 1.71936 12.1783C1.67673 12.2802 1.65479 12.3896 1.65479 12.5C1.65479 12.6104 1.67673 12.7198 1.71936 12.8217C1.76198 12.9235 1.82443 13.0159 1.90307 13.0935C1.98171 13.171 2.07498 13.2321 2.17745 13.2733C2.27992 13.3145 2.38956 13.3349 2.49999 13.3333H22.5C22.6104 13.3349 22.72 13.3145 22.8225 13.2733C22.925 13.2321 23.0183 13.171 23.0969 13.0935C23.1755 13.0159 23.238 12.9235 23.2806 12.8217C23.3232 12.7198 23.3452 12.6104 23.3452 12.5C23.3452 12.3896 23.3232 12.2802 23.2806 12.1783C23.238 12.0765 23.1755 11.9841 23.0969 11.9065C23.0183 11.829 22.925 11.7679 22.8225 11.7267C22.72 11.6855 22.6104 11.6651 22.5 11.6667H2.49999ZM2.49999 17.5C2.38956 17.4984 2.27992 17.5188 2.17745 17.56C2.07498 17.6012 1.98171 17.6623 1.90307 17.7399C1.82443 17.8174 1.76198 17.9098 1.71936 18.0117C1.67673 18.1136 1.65479 18.2229 1.65479 18.3333C1.65479 18.4438 1.67673 18.5531 1.71936 18.655C1.76198 18.7569 1.82443 18.8493 1.90307 18.9268C1.98171 19.0043 2.07498 19.0655 2.17745 19.1067C2.27992 19.1478 2.38956 19.1682 2.49999 19.1667H22.5C22.6104 19.1682 22.72 19.1478 22.8225 19.1067C22.925 19.0655 23.0183 19.0043 23.0969 18.9268C23.1755 18.8493 23.238 18.7569 23.2806 18.655C23.3232 18.5531 23.3452 18.4438 23.3452 18.3333C23.3452 18.2229 23.3232 18.1136 23.2806 18.0117C23.238 17.9098 23.1755 17.8174 23.0969 17.7399C23.0183 17.6623 22.925 17.6012 22.8225 17.56C22.72 17.5188 22.6104 17.4984 22.5 17.5H2.49999Z" fill="white"/>
</svg>
