<svg width="12" height="12" viewBox="0 0 12 12" fill="none" xmlns="http://www.w3.org/2000/svg">
<path d="M12 10.4945L8.45938 7.19515C9.10938 6.43868 9.5 5.47565 9.5 4.42823C9.5 1.98136 7.37187 0 4.75 0C2.125 0 0 1.98427 0 4.42823C0 6.8722 2.12812 8.85647 4.75 8.85647C5.88125 8.85647 6.91875 8.48696 7.73437 7.87306L11.2719 11.1724L12 10.4945ZM1.74375 7.23297C0.940625 6.48524 0.5 5.49019 0.5 4.43114C0.5 3.37209 0.94375 2.37705 1.74375 1.62931C2.54375 0.881573 3.61562 0.465517 4.75 0.465517C5.88438 0.465517 6.95312 0.878664 7.75625 1.6264C8.55937 2.37414 9 3.36918 9 4.42823C9 5.48728 8.55625 6.48233 7.75625 7.23006C6.95312 7.9778 5.88438 8.39095 4.75 8.39095C3.61562 8.39386 2.54688 7.98071 1.74375 7.23297Z" fill="#A8A8A8"/>
</svg>
