<svg width="20" height="19" viewBox="0 0 20 19" fill="none" xmlns="http://www.w3.org/2000/svg">
<path d="M20 17.4908L14.099 11.9919C15.1823 10.7311 15.8333 9.12608 15.8333 7.38039C15.8333 3.30226 12.2865 0 7.91667 0C3.54167 0 0 3.30711 0 7.38039C0 11.4537 3.54687 14.7608 7.91667 14.7608C9.80208 14.7608 11.5312 14.1449 12.8906 13.1218L18.7865 18.6207L20 17.4908ZM2.90625 12.055C1.56771 10.8087 0.833333 9.15032 0.833333 7.38524C0.833333 5.62015 1.57292 3.96175 2.90625 2.71552C4.23958 1.46929 6.02604 0.775862 7.91667 0.775862C9.80729 0.775862 11.5885 1.46444 12.9271 2.71067C14.2656 3.9569 15 5.6153 15 7.38039C15 9.14547 14.2604 10.8039 12.9271 12.0501C11.5885 13.2963 9.80729 13.9849 7.91667 13.9849C6.02604 13.9898 4.24479 13.3012 2.90625 12.055Z" fill="#A8A8A8"/>
</svg>
